# xmcd
#
# Track frame offsets:
# 150
# 8557
# 28889
# 46453
# 58090
# 65519
# 74075
# 85949
# 98927
# 116934
# 134042
# 146954
# 158585
# 182373
# 203246
#
# Disc length: 2912 seconds
#
#
# Revision: 0
# Processed by: cddbd v1.5.1PL0 Copyright (c) Steve Scherf et al.
# Submitted via: FreeRIP 2.942 
#
DISCID=e40b5e0f
DTITLE=Fenyvesi Béla - Angol karácsonyi dalok
DYEAR=1999
DGENRE=
TTITLE0=Joy, Helath, Love and Peace
TTITLE1=Christmas Is Coming: Here We Come a-Wassailing
TTITLE2=The Joys of Mary
TTITLE3=The Cherry Tree Carol
TTITLE4=The Bitter Withy
TTITLE5=The Boar's Head Carol
TTITLE6=Sacrifices: The Goslings
TTITLE7=The Holly and the Ivy
TTITLE8=Down in Yon Forest
TTITLE9=Sans Day Carol
TTITLE10=The Twelve Days of Christmas
TTITLE11=The Sailor's Christmas Day
TTITLE12=The Months of the Year
TTITLE13=A Wassaukm A Wassaukm Throughout all This Town
TTITLE14=Good King Wenceslas
EXTD=
EXTT0=
EXTT1=
EXTT2=
EXTT3=
EXTT4=
EXTT5=
EXTT6=
EXTT7=
EXTT8=
EXTT9=
EXTT10=
EXTT11=
EXTT12=
EXTT13=
EXTT14=
PLAYORDER=
